<svg width="45" height="45" viewBox="0 0 45 45" fill="none" xmlns="http://www.w3.org/2000/svg">
<g clip-path="url(#clip0_140_2)">
<path d="M22.5 42.5C33.5457 42.5 42.5 33.5457 42.5 22.5C42.5 11.4543 33.5457 2.5 22.5 2.5C11.4543 2.5 2.5 11.4543 2.5 22.5C2.5 33.5457 11.4543 42.5 22.5 42.5Z" stroke="black" stroke-width="5" stroke-linejoin="round" stroke-dasharray="10 10"/>
<path d="M22.5 42.5C33.5457 42.5 42.5 33.5457 42.5 22.5C42.5 11.4543 33.5457 2.5 22.5 2.5C11.4543 2.5 2.5 11.4543 2.5 22.5C2.5 33.5457 11.4543 42.5 22.5 42.5Z" stroke="black" stroke-width="5" stroke-linejoin="round" stroke-dasharray="10 10"/>
<path d="M22.5 42.5C33.5457 42.5 42.5 33.5457 42.5 22.5C42.5 11.4543 33.5457 2.5 22.5 2.5C11.4543 2.5 2.5 11.4543 2.5 22.5C2.5 33.5457 11.4543 42.5 22.5 42.5Z" stroke="black" stroke-width="5" stroke-linejoin="round" stroke-dasharray="10 10"/>
</g>
<defs>
<clipPath id="clip0_140_2">
<rect width="45" height="45" fill="white"/>
</clipPath>
</defs>
</svg>
