<svg xmlns="http://www.w3.org/2000/svg" fill="currentColor" stroke="currentColor" stroke-width=".75" style="width:1.25em" viewBox="0 1 24 24"><path fill-rule="evenodd" d="M19.146 18.854a.5.5 0 0 0 .708 0l4-4a.5.5 0 1 0-.708-.708L20 17.293V7.5A2.5 2.5 0 0 0 17.5 5h-8a.5.5 0 0 0 0 1h8A1.5 1.5 0 0 1 19 7.5v9.793l-3.146-3.147a.5.5 0 1 0-.708.708l4 4zM4.854 5.146a.5.5 0 0 0-.708 0l-4 4a.5.5 0 1 0 .708.708L4 6.707V16.5A2.5 2.5 0 0 0 6.5 19h8a.5.5 0 0 0 0-1h-8A1.5 1.5 0 0 1 5 16.5V6.707l3.146 3.147a.5.5 0 1 0 .708-.708l-4-4z"/></svg>