<svg xmlns="http://www.w3.org/2000/svg" width="64" height="64" id="website"><path d="M57.334 46.09a28.91 28.91 0 0 0 0-28.18.971.971 0 0 0-.406-.706 29 29 0 1 0 0 29.592.971.971 0 0 0 .406-.706ZM15.38 47h4.579A27.377 27.377 0 0 0 25.1 57.342 22.448 22.448 0 0 1 15.38 47ZM5.025 33h4.994a36.32 36.32 0 0 0 2.324 12h-4a26.807 26.807 0 0 1-3.318-12Zm3.32-14h4a36.32 36.32 0 0 0-2.324 12H5.025a26.807 26.807 0 0 1 3.32-12Zm40.275-2h-4.579A27.377 27.377 0 0 0 38.9 6.658 22.448 22.448 0 0 1 48.62 17Zm10.355 14h-4.994a36.32 36.32 0 0 0-2.324-12h4a26.807 26.807 0 0 1 3.318 12Zm-6.994 0h-5.993a56.232 56.232 0 0 0-1.427-12h4.961a34.255 34.255 0 0 1 2.459 12ZM31 19v12H20.012a53.521 53.521 0 0 1 1.526-12Zm-8.91-2c2-6.586 5.252-11.177 8.91-11.894V17ZM31 33v12h-9.462a53.521 53.521 0 0 1-1.526-12Zm0 14v11.894c-3.658-.717-6.909-5.308-8.91-11.894Zm2-2V33h10.988a53.521 53.521 0 0 1-1.526 12Zm8.91 2c-2 6.586-5.253 11.177-8.91 11.894V47ZM33 31V19h9.462a53.521 53.521 0 0 1 1.526 12Zm0-14V5.106c3.657.717 6.908 5.308 8.91 11.894ZM25.1 6.658A27.377 27.377 0 0 0 19.959 17H15.38A22.448 22.448 0 0 1 25.1 6.658ZM19.438 19a56.234 56.234 0 0 0-1.426 12h-5.993a34.255 34.255 0 0 1 2.458-12Zm-7.419 14h5.993a56.234 56.234 0 0 0 1.426 12h-4.961a34.255 34.255 0 0 1-2.458-12ZM38.9 57.342A27.377 27.377 0 0 0 44.041 47h4.579a22.448 22.448 0 0 1-9.72 10.342ZM44.561 45a56.232 56.232 0 0 0 1.427-12h5.993a34.255 34.255 0 0 1-2.459 12Zm9.42-12h4.994a26.807 26.807 0 0 1-3.32 12h-4a36.32 36.32 0 0 0 2.326-12Zm.456-16h-3.615a27.44 27.44 0 0 0-6.5-9.012A27.187 27.187 0 0 1 54.437 17Zm-34.76-9.012A27.452 27.452 0 0 0 13.178 17H9.563a27.184 27.184 0 0 1 10.114-9.012ZM9.563 47h3.615a27.452 27.452 0 0 0 6.5 9.012A27.184 27.184 0 0 1 9.563 47Zm34.759 9.012a27.44 27.44 0 0 0 6.5-9.012h3.615a27.187 27.187 0 0 1-10.115 9.012Z"></path></svg>